<svg fill="none" xmlns="http://www.w3.org/2000/svg" viewBox="0 0 67 72">
  <path d="M35.609 72c-.041-1.778-.156-3.557-.111-5.331.2-7.864 3.109-14.607 8.576-20.305 4.305-4.486 9.5-7.3 15.656-8.253 2.064-.32 4.185-.275 6.281-.35.198-.008.562.293.589.487 1.001 7.147.26 14.02-3.802 20.19-4.761 7.23-11.387 11.82-20.08 13.27-.39.065-.768.193-1.153.292H35.61Zm-9.928 0c-.845-.198-1.69-.394-2.534-.595-11.142-2.644-18.457-9.432-22-20.181-1.374-4.17-1.411-8.477-.651-12.79.088-.5.305-.685.84-.699C19.07 37.278 28.906 50.065 30.98 61c.47 2.48.583 4.971.441 7.486-.065 1.168-.048 2.341-.07 3.513H25.68l.001.001Zm8.226-72c.193.198.369.416.583.59 4.827 3.901 8.123 8.825 9.993 14.701.028.09.05.18.076.272.365 1.29.348 1.27-.673 2.118-1.193.991-2.355 2.022-3.58 3.08-.17-.157-.345-.34-.542-.494-1.862-1.473-3.731-2.936-5.593-4.41-.392-.311-.748-.31-1.14 0-1.844 1.457-3.7 2.9-5.539 4.365-.196.156-.306.419-.472.655-.288-.228-.433-.335-.569-.453-1.173-1.018-2.333-2.052-3.526-3.047-.347-.29-.483-.532-.381-1.004 1.163-5.404 3.958-9.88 7.891-13.708C31.372 1.748 32.368.887 33.34 0h.567Z" fill="#EE8434"/>
  <path d="M33.547 54.423c-.103-.21-.21-.412-.302-.62a35.088 35.088 0 0 0-8.669-11.945c-.42-.378-.601-.76-.602-1.329-.023-5.765 1.615-11.015 5.115-15.612 1.155-1.516 2.682-2.753 4.03-4.126.378-.384.63-.08.903.125 4.032 3.042 6.692 7.002 8.082 11.824.75 2.606 1.191 5.252 1.112 7.967-.008.31-.147.708-.369.908-3.908 3.516-6.926 7.658-9.017 12.465a1.59 1.59 0 0 1-.129.249c-.021.034-.075.048-.154.094Zm14.138-16.421c-.177-1.078-.326-2.115-.52-3.143-.65-3.489-1.91-6.757-3.73-9.808-.291-.488-.276-.792.109-1.22 3.697-4.13 8.262-6.779 13.684-8.012.616-.14.93.01 1.189.606 2.334 5.386 2.845 10.926 1.531 16.64-.106.46-.236.77-.816.868-3.9.662-7.571 1.981-11.022 3.9-.116.065-.25.102-.424.17h-.001Zm-28.156-.099c-2.08-.888-4.056-1.847-6.116-2.574-1.748-.617-3.59-.984-5.4-1.415-.402-.095-.617-.229-.71-.627-1.39-5.851-.897-11.527 1.56-17.032.192-.43.446-.525.886-.432 5.568 1.178 10.246 3.859 13.992 8.123.228.26.397.47.166.852-2.39 3.932-3.787 8.197-4.313 12.75-.016.137-.05.27-.065.356v-.001Z" fill="#EE8434"/>
</svg>