<svg id="Layer_1" data-name="Layer 1" version="1.1" xmlns="http://www.w3.org/2000/svg" viewBox="0 0 280.12 499.387">
  <defs id="defs433">
    <style id="style431">
      .cls-2{fill:#fff}.cls-4{fill:none;stroke:#000;stroke-linecap:round;stroke-linejoin:round;stroke-width:20px}
    </style>
  </defs>
  <path id="polygon437" transform="translate(-109.94 -.303)" style="fill:#fdda00" d="M380.06 117.59H119.94l41.3 372.1h177.52z"/>
  <path class="cls-2" id="polygon439" transform="translate(-109.94 -.303)" d="M380.06 117.59H119.94l4.56 41.07h251z"/>
  <path class="cls-2" id="polygon441" transform="translate(-109.94 -.303)" d="M250 489.69h88.76l4.05-36.44H157.2l4.04 36.44z"/>
  <path id="polygon443" transform="translate(-109.94 -.303)" style="fill:#88451f;opacity:.3" d="m338.76 489.69 41.3-372.1h-41.07l-41.3 372.1z"/>
  <path class="cls-4" id="polyline445" transform="translate(-109.94 -.303)" d="M165.58 117.59h-45.64l41.3 372.1h177.52l41.3-372.1H204.37"/>
  <path class="cls-2" d="M228.69 72.377a34.69 34.69 0 0 0-5.43.55v-.55a37.54 37.54 0 0 0-42.94-37.44 45 45 0 0 0-80.56 0 37.54 37.54 0 0 0-42.94 37.44v.55a33.9 33.9 0 0 0-40 34 34.14 34.14 0 0 0 1.64 10.32h37.15v55.3a19.4 19.4 0 1 0 38.79 0v-55.3h167.19a34.21 34.21 0 0 0 1.68-10.32 34.59 34.59 0 0 0-34.58-34.55z" id="path447"/>
  <path class="cls-4" d="M228.69 72.377a34.69 34.69 0 0 0-5.43.55v-.55a37.54 37.54 0 0 0-42.94-37.44 45 45 0 0 0-80.56 0 37.54 37.54 0 0 0-42.94 37.44v.55a33.9 33.9 0 0 0-40 34 34.14 34.14 0 0 0 1.64 10.32h37.15v55.3a19.4 19.4 0 1 0 38.79 0v-55.3h167.19a34.21 34.21 0 0 0 1.68-10.32 34.59 34.59 0 0 0-34.58-34.55z" id="path449"/>
  <path id="line451" style="stroke-width:20.57px;fill:none;stroke:#000;stroke-linecap:round;stroke-linejoin:round" d="M47.26 452.947h185.6"/>
</svg>